<svg width="1000" height="458" viewBox="0 0 1000 458" fill="none" xmlns="http://www.w3.org/2000/svg">
<g filter="url(#filter0_d_13_25)">
<circle cx="224.822" cy="224.822" r="223.822" stroke="url(#paint0_angular_13_25)" stroke-width="2" shape-rendering="crispEdges"/>
</g>
<path d="M900.2 229.95V225.524C900.2 217.164 901.395 209.506 903.783 202.55C906.242 195.595 909.65 189.588 914.006 184.529C918.432 179.471 923.701 175.572 929.813 172.832C935.926 170.021 942.67 168.616 950.047 168.616C957.495 168.616 964.274 170.021 970.387 172.832C976.499 175.572 981.768 179.471 986.194 184.529C990.621 189.588 994.028 195.595 996.417 202.55C998.806 209.506 1000 217.164 1000 225.524V229.95C1000 238.311 998.806 245.969 996.417 252.924C994.028 259.88 990.621 265.887 986.194 270.945C981.839 276.004 976.604 279.938 970.492 282.748C964.38 285.488 957.635 286.858 950.258 286.858C942.811 286.858 936.031 285.488 929.919 282.748C923.806 279.938 918.537 276.004 914.111 270.945C909.685 265.887 906.242 259.88 903.783 252.924C901.395 245.969 900.2 238.311 900.2 229.95ZM905.891 225.524V229.95C905.891 236.765 906.875 243.264 908.842 249.447C910.879 255.559 913.795 261.004 917.589 265.781C921.383 270.559 926.02 274.318 931.5 277.057C936.98 279.798 943.233 281.167 950.258 281.167C957.214 281.167 963.396 279.798 968.806 277.057C974.286 274.318 978.923 270.559 982.717 265.781C986.511 261.004 989.391 255.559 991.358 249.447C993.326 243.264 994.309 236.765 994.309 229.95V225.524C994.309 218.85 993.326 212.457 991.358 206.344C989.391 200.232 986.475 194.787 982.611 190.009C978.818 185.162 974.181 181.333 968.701 178.522C963.221 175.712 957.003 174.307 950.047 174.307C943.092 174.307 936.874 175.712 931.394 178.522C925.984 181.333 921.347 185.162 917.483 190.009C913.689 194.787 910.809 200.232 908.842 206.344C906.875 212.457 905.891 218.85 905.891 225.524Z" fill="white"/>
<path d="M821.091 121.404V283.275H815.4V121.404H821.091Z" fill="white"/>
<path d="M694.875 286.858C687.919 286.858 681.421 285.488 675.378 282.748C669.336 279.938 664.032 276.004 659.465 270.945C654.899 265.887 651.315 259.915 648.716 253.03C646.187 246.074 644.922 238.451 644.922 230.161V225.524C644.922 217.164 646.152 209.541 648.611 202.656C651.14 195.7 654.582 189.693 658.938 184.635C663.365 179.506 668.458 175.572 674.219 172.832C679.98 170.021 686.163 168.616 692.767 168.616C699.09 168.616 704.886 169.811 710.155 172.199C715.425 174.518 719.991 177.82 723.856 182.106C727.79 186.391 730.811 191.52 732.919 197.492C735.027 203.464 736.08 210.068 736.08 217.304V223.943H648.611V218.253H730.389V216.883C730.389 209.225 728.844 202.199 725.753 195.806C722.661 189.342 718.305 184.143 712.685 180.209C707.064 176.274 700.425 174.307 692.767 174.307C686.444 174.307 680.683 175.642 675.484 178.312C670.355 180.981 665.929 184.67 662.205 189.377C658.482 194.014 655.601 199.424 653.564 205.606C651.597 211.789 650.613 218.428 650.613 225.524V230.161C650.613 237.257 651.737 243.896 653.985 250.079C656.233 256.261 659.36 261.706 663.365 266.414C667.369 271.05 672.041 274.704 677.381 277.374C682.791 279.973 688.622 281.273 694.875 281.273C701.409 281.273 707.486 280.184 713.106 278.006C718.797 275.828 723.996 271.683 728.703 265.571L732.708 268.416C730.179 271.999 727.122 275.196 723.54 278.006C720.027 280.746 715.881 282.924 711.104 284.54C706.397 286.086 700.987 286.858 694.875 286.858Z" fill="white"/>
<path d="M560.438 168.476H566.235V280.922C566.235 290.617 564.513 299.013 561.071 306.109C557.628 313.275 552.675 318.79 546.211 322.654C539.818 326.518 532.125 328.451 523.132 328.451C517.582 328.451 512.488 327.643 507.851 326.027C503.284 324.411 499.139 322.127 495.416 319.177C491.762 316.296 488.566 312.994 485.826 309.27L489.83 305.477C494.256 311.027 499.104 315.313 504.374 318.334C509.713 321.355 515.896 322.865 522.921 322.865C531.212 322.865 538.132 321.144 543.682 317.701C549.232 314.259 553.413 309.376 556.223 303.053C559.033 296.8 560.438 289.423 560.438 280.922V193.558V168.476ZM478.87 226.543V224.33C478.87 215.337 479.819 207.293 481.716 200.197C483.683 193.031 486.493 186.953 490.146 181.965C493.87 176.907 498.402 173.043 503.741 170.373C509.081 167.703 515.123 166.368 521.867 166.368C528.05 166.368 533.565 167.317 538.413 169.214C543.331 171.11 547.616 173.78 551.27 177.223C554.923 180.595 557.944 184.565 560.333 189.131C562.722 193.698 564.548 198.651 565.813 203.991V250.466C564.9 254.962 563.284 259.283 560.965 263.428C558.717 267.503 555.731 271.156 552.008 274.388C548.354 277.55 543.998 280.044 538.94 281.87C533.881 283.697 528.12 284.61 521.657 284.61C514.912 284.61 508.87 283.24 503.53 280.5C498.261 277.69 493.8 273.721 490.146 268.592C486.493 263.463 483.683 257.351 481.716 250.255C479.819 243.159 478.87 235.255 478.87 226.543ZM484.666 224.33V226.543C484.666 234.131 485.404 241.121 486.88 247.515C488.425 253.908 490.709 259.458 493.73 264.166C496.821 268.802 500.685 272.421 505.322 275.02C509.959 277.62 515.369 278.919 521.551 278.919C529.561 278.919 536.34 277.514 541.891 274.704C547.441 271.894 551.867 268.135 555.169 263.428C558.471 258.721 560.755 253.522 562.019 247.831V207.784C561.246 204.272 560.052 200.478 558.436 196.403C556.82 192.258 554.502 188.359 551.481 184.705C548.459 180.982 544.525 177.961 539.677 175.642C534.9 173.253 528.928 172.059 521.762 172.059C515.509 172.059 510.029 173.359 505.322 175.958C500.685 178.558 496.821 182.211 493.73 186.918C490.709 191.555 488.425 197.07 486.88 203.464C485.404 209.787 484.666 216.742 484.666 224.33Z" fill="white"/>
<path d="M323.287 193.593V283.275H317.596V169.249H323.287V193.593ZM322.338 216.461L319.282 210.454C319.984 204.834 321.53 199.459 323.919 194.33C326.308 189.131 329.434 184.494 333.298 180.42C337.162 176.345 341.659 173.113 346.787 170.724C351.916 168.335 357.572 167.141 363.755 167.141C369.516 167.141 374.644 167.949 379.141 169.565C383.637 171.111 387.431 173.605 390.522 177.047C393.614 180.42 395.967 184.775 397.583 190.115C399.199 195.454 400.007 201.918 400.007 209.506V283.275H394.316V209.506C394.316 199.81 392.981 192.328 390.312 187.059C387.712 181.719 384.094 177.996 379.457 175.888C374.82 173.78 369.481 172.726 363.438 172.726C356.272 172.726 350.125 174.342 344.996 177.574C339.937 180.736 335.757 184.705 332.455 189.483C329.223 194.26 326.764 199.108 325.078 204.026C323.462 208.944 322.549 213.089 322.338 216.461Z" fill="white"/>
<path d="M177.117 134.682L121.685 283.275H115.467L172.902 129.835H178.382L177.117 134.682ZM231.074 283.275L175.642 134.682L174.483 129.835H179.857L237.292 283.275H231.074ZM214.845 231.742V237.433H138.019V231.742H214.845Z" fill="white"/>
<defs>
<filter id="filter0_d_13_25" x="0" y="0" width="458.643" height="457.643" filterUnits="userSpaceOnUse" color-interpolation-filters="sRGB">
<feFlood flood-opacity="0" result="BackgroundImageFix"/>
<feColorMatrix in="SourceAlpha" type="matrix" values="0 0 0 0 0 0 0 0 0 0 0 0 0 0 0 0 0 0 127 0" result="hardAlpha"/>
<feOffset dx="5" dy="4"/>
<feGaussianBlur stdDeviation="2"/>
<feComposite in2="hardAlpha" operator="out"/>
<feColorMatrix type="matrix" values="0 0 0 0 0 0 0 0 0 0 0 0 0 0 0 0 0 0 0.25 0"/>
<feBlend mode="normal" in2="BackgroundImageFix" result="effect1_dropShadow_13_25"/>
<feBlend mode="normal" in="SourceGraphic" in2="effect1_dropShadow_13_25" result="shape"/>
</filter>
<radialGradient id="paint0_angular_13_25" cx="0" cy="0" r="1" gradientUnits="userSpaceOnUse" gradientTransform="translate(224.822 224.822) rotate(25.0169) scale(223.288)">
<stop stop-color="white" stop-opacity="0"/>
<stop offset="1" stop-color="white"/>
</radialGradient>
</defs>
</svg>
